<svg width="100" height="108" viewBox="0 0 100 108" fill="none" xmlns="http://www.w3.org/2000/svg">
<path d="M50 106.435L1.05261 77.5089L19.4351 48.9094L22.518 44.1132L24.7413 40.6522L49.8682 1.55501L98.9531 77.5089L50 106.435Z" fill="#1E1B57"/>
<path d="M50 107.128L0.216003 77.7094L49.8625 0.466278L99.784 77.7094L50 107.128ZM1.88349 77.314L50.0057 105.747L98.1222 77.314L49.8739 2.64948L1.88349 77.3083V77.314Z" fill="white"/>
<path d="M2.92639 65.3264C3.19571 65.4754 3.44784 65.6244 3.71716 65.7619C4.58815 66.2432 5.46487 66.7074 6.35305 67.1543C7.16101 67.5612 7.98043 67.9451 8.81131 68.3004C15.2005 71.0337 21.859 72.6439 28.8326 72.8101C30.6491 72.8616 32.5515 74.3801 32.9985 76.1278C33.3939 77.589 33.5715 79.1878 34.3222 80.414C36.1902 83.4453 36.8263 84.1043 37.8061 86.3906C38.7745 88.6483 37.5941 92.3099 37.0211 93.5763C36.3679 95.0146 35.239 95.9257 34.7233 97.4786L50.0344 106.492L51.7305 105.484L65.5346 97.3296L67.9184 95.92C68.7378 92.9002 73.8376 87.4794 74.5711 84.4366C74.8748 83.113 75.2989 81.8007 75.5796 80.4599C77.4649 79.4227 79.1209 78.1678 80.3185 76.4717C83.3211 75.446 84.3927 71.6067 83.0747 68.9422C82.8398 66.5813 81.4072 64.6961 80.2326 62.3066C78.6224 59.0518 77.6941 56.2956 74.3304 54.6339C74.1643 54.376 73.958 54.0895 73.7288 53.8316C72.3879 52.2845 71.0413 50.7889 68.6747 51.4135C67.6605 51.6713 66.6634 51.9579 65.632 52.0667C63.6952 52.3017 62.0277 53.3388 60.6181 54.674C59.8674 55.3559 58.3604 55.4647 57.2315 55.4017C56.9164 55.3731 56.67 54.462 56.372 53.654C56.3032 53.4764 56.2345 53.2987 56.1542 53.1325C56.9049 52.9434 57.4092 52.7945 57.902 52.6856C58.8073 52.4908 59.4434 52.2214 59.8158 51.7859C60.3316 51.2702 60.4863 50.5196 60.4691 49.4366C60.4175 48.4968 60.3029 47.4023 60.7441 46.6803C61.2885 45.7349 61.4547 44.755 62.4345 43.8095C62.6294 43.6319 62.4632 43.0417 62.297 42.7036C62.1881 42.5088 62.0793 42.3082 61.9704 42.0904C61.5636 41.4086 61.6438 40.4803 62.3085 40.0276C62.7153 39.7239 62.9674 39.2655 63.1279 38.6179C63.5806 36.7728 62.0907 33.0023 60.4347 32.0454C58.4234 30.8707 56.3605 29.7762 54.2862 28.7104C52.7562 27.9426 51.169 27.5644 49.3926 27.9025C48.2007 28.1489 46.8942 28.3265 45.7023 28.1374C44.3672 27.9082 43.0493 28.3666 42.0866 29.2949C41.8173 29.4554 41.5709 29.633 41.3474 29.8794C40.5394 30.6587 39.955 31.6386 39.2673 32.5153C38.2989 33.7874 37.0555 34.9621 36.4251 36.4061C35.5542 38.234 35.9495 40.2854 35.9094 42.228C35.6917 45.3853 35.6917 45.7635 37.9551 47.8665C38.5969 48.3822 39.2215 51.4994 39.7716 52.7314C39.9206 53.0867 42.6596 54.7083 42.6997 54.8172C42.6997 54.8172 41.9605 57.5104 39.7315 57.5505C38.213 57.6078 36.683 57.413 35.1301 57.3442C33.3308 56.4962 31.8696 55.8544 29.5088 56.0206C27.0334 56.181 25.1367 58.7768 23.3316 58.221C22.8388 58.072 22.3231 57.9173 21.8418 57.7855C18.948 57.0234 12.4614 56.8457 12.2093 56.8686" fill="white"/>
<path d="M69.7119 80.374C69.1961 79.142 67.3739 78.8612 66.2107 78.2939C62.1709 76.7811 58.2629 74.999 54.0226 74.6208C51.8737 74.4031 49.9427 72.3632 51.6216 70.6899C53.3349 69.3147 55.9021 69.9679 57.942 70.1398C61.7125 70.455 65.1162 71.1999 68.732 70.4206C72.9953 69.1313 71.6831 70.6498 66.3196 65.5958C64.4687 63.8538 63.1049 61.344 60.6467 60.473C57.1169 59.5791 52.8307 61.705 49.2321 61.4357C45.6737 61.3612 42.8487 59.8197 39.296 59.8713C37.3591 59.9172 35.5255 59.4874 33.7033 58.817C31.6232 57.9746 29.7953 57.0807 27.8585 58.1351C22.644 61.6649 18.9938 58.2095 13.8023 58.7768C13.447 58.8284 13.086 58.8972 12.725 58.9602C12.5359 58.9946 12.3411 59.029 12.152 59.0576C12.1405 59.0462 12.1233 59.0404 12.1119 59.029C12.066 58.9946 12.0259 58.9774 11.9915 58.9373C10.6965 57.9689 12.9141 56.5363 13.2063 51.998C13.6132 45.7177 11.344 42.3254 13.2293 34.6641C13.7622 33.5926 16.3866 32.5955 16.0543 29.9367C17.3321 29.2205 16.9023 29.4497 17.6301 29.1116C18.9652 28.3609 20.3061 27.4957 21.6183 26.6877C21.6985 26.6419 21.7787 26.5903 21.8589 26.5502C21.9621 26.4814 22.071 26.4127 22.1684 26.3554C23.3717 25.5073 23.6468 23.794 24.9934 22.9975C27.1365 22.0634 28.3341 19.886 30.5918 19.078C33.0214 18.0007 35.4395 16.9979 38.0067 16.4708C39.9893 15.7258 40.0065 12.9123 39.4392 11.1073C39.0438 9.93259 38.19 9.66901 37.2445 9.74923C36.4595 9.53148 35.4739 9.8008 34.6144 10.0529C33.3767 10.3624 31.692 9.94978 30.7981 10.6775C30.3282 11.0672 29.9615 11.5944 29.3483 11.7663C28.0934 11.9955 26.7869 11.9554 25.6008 12.4997C24.8043 12.7862 23.9963 13.0326 23.5436 13.6057C23.3144 13.875 23.1139 14.1672 22.8503 14.3907C22.4033 14.7861 21.7787 14.9179 21.1828 14.9351C18.0025 14.9694 15.2692 14.0813 12.2437 13.2217C11.6821 13.0957 11.579 13.0326 10.8799 13.0269C10.2897 13.0441 9.87709 13.2848 9.83698 13.6114C9.79114 13.8349 9.93439 14.0813 10.3011 14.3277H10.3069C12.3182 15.3648 14.106 16.0353 16.1517 16.8661H16.1574C16.2949 16.9234 16.3923 16.9979 16.4554 17.0839C16.5585 17.2042 16.5814 17.3532 16.5471 17.5022C16.5069 17.7257 16.335 17.9377 16.0829 18.0867C13.3897 19.7885 9.83125 18.5279 6.90312 18.0523C6.12954 17.9721 5.67685 18.1382 5.55652 18.4133C5.49922 18.568 5.5336 18.7457 5.65967 18.9233C5.68832 19.2327 6.04359 19.5995 6.71975 19.8802C8.84565 20.8773 11.0862 21.7827 13.3725 22.052C13.7851 22.1322 14.2779 22.2124 14.6446 22.4015C14.9655 23.3012 11.9572 23.5189 11.4644 23.5132C9.78541 23.6679 8.08354 23.0147 6.37594 22.9344C5.9691 22.9344 5.50495 23.0204 5.17832 23.2553C5.05799 23.3413 4.95485 23.4444 4.88036 23.5705C4.74857 23.92 4.78867 24.1492 4.92047 24.3154C5.27574 24.7795 6.30144 24.8139 6.24414 25.5818C6.22695 25.7995 6.12954 26.0746 5.91179 26.4184C5.17832 27.5644 5.06945 29.0256 5.16113 30.355C5.17259 30.5441 5.21844 30.7619 5.28147 31.014C5.37889 31.948 5.49349 32.8878 5.55652 33.8104C5.45338 40.6579 2.31323 46.6288 1.71729 53.9004C1.49954 56.5134 1.14426 59.6536 1.83189 62.1978C1.89492 62.851 1.96369 63.9398 2.03245 64.4383C2.15278 65.3207 2.84041 66.2032 3.69994 66.4381C6.09516 67.0971 6.58796 67.4982 7.45895 67.8993C12.3354 70.1685 17.1544 71.5667 22.495 72.3918C25.8071 72.9648 30.1162 72.7471 31.9498 76.1222C33.0386 78.0017 34.0184 80.4542 35.2218 81.8696C38.0124 85.1587 43.393 93.7826 43.8572 95.7768C44.4646 99.404 46.665 100.676 50.0974 102.051C50.1031 102.051 50.1146 102.057 50.1318 102.063C50.149 102.069 50.4985 101.931 50.4985 101.931C52.315 100.917 53.9366 96.7452 55.4379 95.3184C58.9219 91.9948 61.9073 94.4244 66.5545 93.0893C67.2651 92.883 68.7778 89.6512 68.8753 89.4965C69.6832 88.1671 70.8923 87.8576 71.1731 86.299C71.5627 85.577 69.0758 85.8234 69.7061 80.3797L69.7119 80.374ZM47.1463 69.2918L47.1349 69.4293C47.0203 69.9908 46.5962 70.5123 46.1092 70.7931C44.9402 71.4463 43.7311 69.9106 42.4991 69.1199C41.6052 68.4895 40.528 68.077 39.7372 67.3148C39.2673 66.8851 38.9407 66.0657 39.8461 65.8823C41.4047 65.6703 47.45 67.2633 47.1521 69.2918H47.1463Z" fill="#1E1B57"/>
<path d="M50.1375 102.63C50.0974 102.63 50.0573 102.63 50.0172 102.613H49.9943L49.8911 102.573C46.5676 101.243 43.9718 99.9025 43.3014 95.8627C42.8774 94.029 37.5425 85.4738 34.792 82.2305C33.9669 81.2564 33.2564 79.8468 32.563 78.483C32.202 77.7724 31.8353 77.039 31.4571 76.3972C30.1047 73.9103 27.211 73.5607 24.4089 73.2226C23.7098 73.1367 23.0509 73.0565 22.4034 72.9476C16.8565 72.0938 12.0317 70.6498 7.22404 68.4093C7.03494 68.3233 6.85731 68.2316 6.67967 68.14C6.04362 67.8133 5.38465 67.481 3.55671 66.9767C2.50809 66.6902 1.63136 65.6473 1.47091 64.5013C1.42507 64.1804 1.38497 63.6532 1.34486 63.1375C1.32194 62.8338 1.29901 62.5301 1.27036 62.2894C0.634308 59.8885 0.874973 57.0577 1.08699 54.5536L1.1443 53.8431C1.43081 50.3763 2.27887 47.2075 3.10402 44.1361C4.04378 40.6464 4.92623 37.3516 4.98353 33.7874C4.93769 33.1743 4.86319 32.5096 4.79443 31.8391L4.71421 31.0999C4.64545 30.8249 4.59388 30.5957 4.58242 30.3665C4.46208 28.5729 4.73713 27.169 5.42476 26.0917C5.62531 25.7651 5.6597 25.5875 5.66543 25.5302C5.66543 25.4614 5.63105 25.4098 5.24712 25.215C4.9778 25.0832 4.66837 24.9285 4.45635 24.6477C4.26726 24.4013 4.09535 23.9773 4.33601 23.347L4.38186 23.2553C4.49646 23.0662 4.64545 22.9057 4.83455 22.7682C5.31015 22.4244 5.92329 22.3442 6.35878 22.3384C7.14382 22.3728 7.88302 22.5104 8.60502 22.6479C9.58489 22.8312 10.5017 23.0032 11.4071 22.9229H11.4357H11.4644C11.9515 22.9401 12.8969 22.8141 13.533 22.6479C13.47 22.6364 13.4069 22.625 13.3439 22.6135L13.2579 22.5963C10.8341 22.3155 8.46176 21.3185 6.46765 20.3787C5.71699 20.0636 5.23566 19.6166 5.10959 19.1181C4.96061 18.8602 4.90903 18.5794 4.97207 18.3158V18.2815L5.01791 18.1669C5.16116 17.846 5.59667 17.3245 6.94899 17.4678C7.54493 17.5652 8.13514 17.6855 8.73681 17.8059C11.218 18.3158 13.7794 18.843 15.762 17.5881C15.8938 17.5136 15.9454 17.4391 15.9626 17.4047C15.9626 17.4047 15.9511 17.399 15.9454 17.3933L14.8911 16.9692C13.2923 16.3275 11.7795 15.7201 10.1292 14.8777H10.0949L9.9688 14.7918C9.22388 14.2875 9.20669 13.7546 9.26399 13.4796C9.33848 12.9008 9.98027 12.4653 10.8513 12.4424C11.4816 12.4538 11.6936 12.4997 12.089 12.5914L12.3583 12.6544L13.2866 12.918C15.911 13.6686 18.3807 14.3792 21.1714 14.3505C21.7444 14.3276 22.1856 14.1958 22.4606 13.9494C22.6211 13.8176 22.7529 13.6457 22.9019 13.4681C22.9706 13.3879 23.0337 13.3019 23.1024 13.2217C23.6067 12.5856 24.4146 12.2991 25.1997 12.0184L25.4002 11.9439C26.254 11.5485 27.1881 11.4396 28.0934 11.3365C28.4888 11.2906 28.867 11.2505 29.2395 11.1817C29.4859 11.113 29.7265 10.878 30.0016 10.6087C30.1391 10.4769 30.2766 10.3394 30.4256 10.2191C31.1305 9.65178 32.0931 9.62886 33.0214 9.61167C33.5486 9.60021 34.0471 9.58875 34.4654 9.48561C35.4453 9.1991 36.4137 8.95269 37.2847 9.15898C38.9636 9.05584 39.6799 10.0529 39.9664 10.9182C40.5796 12.8722 40.6082 16.0925 38.1901 16.9979L38.1041 17.0208C35.5141 17.5537 33.0787 18.5794 30.8038 19.5879C29.6807 19.9948 28.8556 20.734 27.9846 21.5248C27.1709 22.2582 26.3228 23.0146 25.2398 23.4959C24.6668 23.8455 24.3115 24.43 23.9333 25.0488C23.5437 25.6849 23.1483 26.3381 22.4778 26.808C22.346 26.8882 22.2486 26.9455 22.1627 27.0086L22.0996 27.0487C22.0309 27.0831 21.9564 27.1289 21.8819 27.169C21.5438 27.3753 21.1943 27.5988 20.839 27.8165C19.8706 28.4182 18.8735 29.0428 17.8822 29.5986L17.4983 29.7762C17.3531 29.8412 17.08 29.9864 16.6789 30.2117L16.6273 30.2404C16.6961 32.1314 15.4526 33.2316 14.5358 34.0453C14.1977 34.3432 13.8768 34.6297 13.745 34.8532C12.6505 39.3629 13.0173 42.2967 13.4069 45.4082C13.6591 47.4195 13.9169 49.4939 13.7565 52.0152C13.6075 54.3359 12.96 55.906 12.5359 56.9431C12.0718 58.0777 12.0603 58.2554 12.2781 58.433C12.3869 58.4158 12.4901 58.3986 12.599 58.3757C12.9714 58.3069 13.3382 58.2439 13.6934 58.1866C15.7391 57.9631 17.504 58.3184 19.2059 58.6622C22.0137 59.2295 24.4376 59.7166 27.509 57.6365C29.589 56.4962 31.4628 57.264 33.4397 58.0777L33.8924 58.2611C35.8808 58.9946 37.5827 59.3154 39.2559 59.2753C41.187 59.2524 42.8888 59.665 44.5449 60.0718C46.0977 60.45 47.5647 60.8053 49.215 60.8454C50.7564 60.96 52.3895 60.6334 54.1258 60.2839C56.3548 59.8369 58.6583 59.3727 60.7613 59.9057C62.6466 60.5704 63.8843 62.0201 65.0819 63.4183C65.6205 64.0486 66.1305 64.6388 66.6863 65.166C68.6117 66.9825 69.9812 67.9165 70.7949 68.478C71.5284 68.9766 71.8951 69.2287 71.8034 69.7215C71.7175 70.2143 71.2877 70.3174 70.4396 70.5295C70.05 70.6269 69.5228 70.7587 68.8638 70.9592C65.9586 71.5895 63.2769 71.2858 60.4404 70.965C59.5981 70.8675 58.7386 70.7758 57.8618 70.7014C57.4894 70.6727 57.1055 70.6211 56.7101 70.5753C54.9796 70.369 53.1917 70.1513 51.9712 71.1082C51.5586 71.5322 51.4326 71.9792 51.593 72.4376C51.8795 73.2398 52.9339 73.9275 54.0455 74.0421C57.6269 74.3572 61.0135 75.6752 64.2911 76.9473C64.9845 77.2166 65.6778 77.4859 66.3769 77.7495C66.715 77.91 67.0588 78.036 67.4198 78.1735C68.5028 78.5689 69.7291 79.0159 70.199 80.1505L70.2563 80.288L70.2391 80.437C69.8265 83.9725 70.7605 84.8378 71.2648 85.3076C71.4997 85.5254 71.918 85.915 71.6831 86.4709C71.4653 87.5482 70.8751 88.1154 70.3021 88.6655C69.9468 89.0036 69.6088 89.3245 69.328 89.7887C69.3165 89.8116 69.2821 89.8861 69.2248 89.9892C67.8152 92.8085 67.1906 93.4846 66.6806 93.6336C64.7381 94.1895 63.0649 94.1207 61.5922 94.0634C59.4262 93.9774 57.7186 93.9029 55.8047 95.7309C55.2259 96.281 54.5956 97.3296 53.9309 98.4413C52.9511 100.08 51.9311 101.771 50.7507 102.429L50.6819 102.464C50.3897 102.578 50.2407 102.636 50.1031 102.636L50.1375 102.63ZM5.40183 23.8168C5.36745 23.9143 5.37892 23.9544 5.37892 23.9544C5.43622 24.0231 5.61959 24.1205 5.7743 24.195C6.18688 24.4013 6.88023 24.7451 6.82293 25.6104C6.80001 25.9485 6.66248 26.3037 6.40462 26.7106C5.84879 27.5816 5.63104 28.7505 5.73418 30.3034C5.73991 30.4581 5.79149 30.6587 5.83733 30.8593L5.85452 30.9452L5.93475 31.7245C6.00924 32.4064 6.08373 33.0883 6.12957 33.7645C6.07227 37.5235 5.17263 40.8814 4.21568 44.4456C3.402 47.4654 2.56539 50.5883 2.29034 53.9462L2.2273 54.6625C2.02102 57.0864 1.78608 59.8312 2.38775 62.043L2.40494 62.1347C2.42786 62.3926 2.45651 62.7192 2.48516 63.0515C2.52527 63.5501 2.56539 64.0543 2.6055 64.3523C2.70291 65.0457 3.25301 65.7161 3.85468 65.8823C5.79722 66.4152 6.54215 66.7934 7.19539 67.1257C7.36156 67.2117 7.52201 67.2919 7.70538 67.3778C12.4156 69.5725 17.143 70.9821 22.5867 71.8245C23.2113 71.9334 23.8588 72.0136 24.5464 72.0938C27.4918 72.4491 30.8325 72.8559 32.4599 75.8471C32.8438 76.5061 33.222 77.2567 33.5887 77.9787C34.2477 79.2852 34.9296 80.6318 35.6688 81.5028C38.3963 84.7232 43.9145 93.4331 44.4245 95.6564C44.9574 98.8309 46.6249 100.034 50.1547 101.461C50.1948 101.444 50.2292 101.432 50.2579 101.421C51.1632 100.888 52.1316 99.2836 52.9854 97.8625C53.696 96.6821 54.3607 95.5704 55.054 94.9172C57.3232 92.7512 59.4377 92.8371 61.6839 92.9345C63.1394 92.9976 64.6407 93.0549 66.4056 92.5506C66.4801 92.499 66.9499 92.0922 68.245 89.4964C68.3252 89.336 68.3768 89.2328 68.394 89.2099C68.7492 88.6197 69.179 88.2129 69.5515 87.8576C70.0614 87.3705 70.4683 86.9809 70.6058 86.2417C70.5829 86.2187 70.5542 86.1958 70.5256 86.1672C69.9296 85.6114 68.6976 84.471 69.1217 80.4943C68.7836 79.9041 67.9126 79.5832 67.0645 79.2738C66.6921 79.1362 66.3024 78.993 65.9586 78.8268C65.3054 78.5861 64.612 78.3168 63.9129 78.0417C60.5608 76.741 57.3977 75.509 53.971 75.211C52.4124 75.0506 50.9741 74.0592 50.5444 72.8502C50.2292 71.9563 50.4642 71.0509 51.2148 70.3003L51.2607 70.2601C52.8594 68.9766 54.991 69.2344 56.8762 69.4636C57.2602 69.5095 57.6326 69.5553 57.9879 69.584C58.8761 69.6585 59.7413 69.7559 60.5951 69.8533C63.3399 70.1627 65.93 70.455 68.606 69.8762C69.2363 69.6871 69.7749 69.5496 70.176 69.4522C69.3853 68.9135 67.9184 67.905 65.9242 66.0312C65.3226 65.464 64.7667 64.8164 64.2338 64.1919C63.0821 62.8453 61.9933 61.5731 60.4462 61.0288C58.6469 60.5761 56.4751 61.0116 54.3722 61.4356C52.6359 61.7852 50.8423 62.1462 49.1806 62.0201C47.4329 61.9857 45.8341 61.5961 44.2927 61.2179C42.631 60.811 41.0552 60.4271 39.296 60.4557C37.4852 60.5016 35.6401 60.1521 33.497 59.367L33.0214 59.1722C31.1534 58.4043 29.6807 57.8027 28.1221 58.6507C24.6954 60.9715 21.7959 60.387 18.9939 59.8197C17.3722 59.4931 15.6933 59.155 13.8539 59.3556C13.5273 59.4071 13.1777 59.4702 12.8225 59.5332C12.6162 59.5676 12.4213 59.6019 12.2208 59.6306L11.9744 59.665L11.7165 59.4644C11.7165 59.4644 11.6478 59.4186 11.5905 59.367C10.622 58.6164 11.0174 57.648 11.4759 56.5306C11.8999 55.5049 12.4786 54.0952 12.6104 51.9636C12.7651 49.5512 12.513 47.5284 12.2666 45.5687C11.8827 42.4801 11.4816 39.2827 12.6505 34.5266L12.6964 34.4063C12.9141 33.9708 13.3152 33.6155 13.7794 33.2029C14.6618 32.4236 15.6589 31.5354 15.4641 30.0055L15.4182 29.6215L16.1288 29.2262C16.7648 28.8709 16.7763 28.8652 17.0399 28.7448L17.3722 28.5958C18.3005 28.0744 19.2861 27.4555 20.2431 26.8596C20.5983 26.6361 20.9479 26.4184 21.3031 26.2006C21.3891 26.149 21.4693 26.1032 21.5495 26.0631C21.6527 25.9943 21.7673 25.9198 21.8704 25.8625C22.3002 25.5588 22.6211 25.0316 22.9649 24.4701C23.3832 23.7825 23.8588 23.0032 24.6954 22.5104L24.7585 22.476C25.6925 22.0691 26.4374 21.3987 27.2282 20.6881C28.145 19.863 29.0962 19.0092 30.3912 18.5451C32.6661 17.5308 35.153 16.4822 37.8405 15.9263C39.4622 15.2788 39.3476 12.7461 38.8891 11.2849C38.637 10.5342 38.1729 10.2534 37.2904 10.3222H37.1873L37.0899 10.305C36.4366 10.1217 35.4739 10.4024 34.7749 10.603C34.2133 10.7462 33.6231 10.7577 33.0558 10.7692C32.2822 10.7864 31.5545 10.8035 31.1591 11.1187C31.0388 11.2161 30.9242 11.3307 30.8096 11.4396C30.4657 11.7719 30.0761 12.1501 29.4973 12.3106C29.0389 12.3965 28.6263 12.4424 28.2252 12.4882C27.3714 12.5856 26.5692 12.6773 25.8357 13.0154L25.5836 13.1071C24.9246 13.342 24.3 13.5598 23.9906 13.9552C23.9161 14.0411 23.8588 14.1156 23.8015 14.1901C23.6296 14.4078 23.452 14.6256 23.217 14.8261C22.7472 15.2445 22.0653 15.4737 21.2057 15.508C18.2432 15.5424 15.6875 14.809 12.9772 14.0297L11.8311 13.7145C11.5045 13.6343 11.3727 13.6056 10.8685 13.5942C10.645 13.5999 10.5017 13.6572 10.433 13.6973C10.4616 13.726 10.5075 13.7718 10.5762 13.8234C12.2151 14.6657 13.7278 15.2731 15.3265 15.9149L16.3752 16.3332C16.6044 16.4306 16.7878 16.5681 16.9138 16.74C17.1029 16.9578 17.1831 17.2959 17.1029 17.6282C17.0399 17.9892 16.7648 18.3445 16.3637 18.5737C14.0086 20.0636 11.0862 19.4619 8.51334 18.9347C7.92886 18.8144 7.35584 18.6998 6.80574 18.6081C6.49631 18.5737 6.28428 18.6024 6.16395 18.631L6.18114 18.6597L6.22126 18.8602C6.23845 18.9061 6.41036 19.1295 6.9318 19.3473C8.86861 20.2527 11.132 21.2096 13.4299 21.4789L13.5559 21.5018C13.9914 21.5821 14.4785 21.6795 14.8968 21.8915L15.0973 21.9946L15.1718 22.2067C15.2807 22.5046 15.2349 22.8141 15.0458 23.0776C14.3983 23.983 11.8426 24.0747 11.4816 24.0804C10.4272 24.1721 9.39006 23.9773 8.38154 23.7939C7.671 23.6621 7.00056 23.5361 6.33013 23.5074C5.99205 23.5074 5.67689 23.5876 5.49925 23.7194C5.44768 23.7538 5.4133 23.7939 5.37892 23.8283L5.40183 23.8168ZM16.0256 17.4391C16.0256 17.4391 16.0256 17.4391 16.0256 17.4449C16.0256 17.4449 16.0256 17.4449 16.0256 17.4391ZM45.5133 71.5265C44.648 71.5265 43.84 70.879 43.1008 70.2888C42.7971 70.0424 42.482 69.7903 42.184 69.6012C41.8402 69.3605 41.4907 69.1599 41.1239 68.9536C40.5108 68.6041 39.8747 68.2431 39.3361 67.7274C38.9579 67.3836 38.5683 66.7533 38.7344 66.1401C38.8032 65.8937 39.0209 65.4582 39.7258 65.315C41.1468 65.1201 45.4903 66.1516 47.0719 67.7446C47.6965 68.3749 47.771 68.9651 47.7194 69.3548L47.7022 69.5381C47.5647 70.2372 47.0604 70.9077 46.4014 71.2858C46.1035 71.452 45.8112 71.5265 45.5247 71.5265H45.5133ZM39.8461 66.4725C39.8633 66.5584 39.955 66.7418 40.1211 66.8908C40.5681 67.3148 41.1125 67.63 41.6912 67.9566C42.0694 68.1686 42.4591 68.3921 42.8258 68.6499C43.1581 68.862 43.4962 69.1313 43.8228 69.3949C44.7454 70.1341 45.3413 70.5638 45.8284 70.2888C46.1894 70.0825 46.4817 69.7043 46.5676 69.3376L46.5791 69.2058C46.6077 69.0167 46.4989 68.7932 46.2525 68.5525C44.9861 67.2747 41.0609 66.2948 39.9148 66.4496C39.8862 66.4553 39.8575 66.4667 39.8404 66.4725H39.8461Z" fill="white"/>
<path d="M59.0137 43.5803C58.2172 44.0215 59.8332 44.9613 59.1398 45.4312C58.8647 45.6317 58.5782 45.7005 58.3318 45.9297C57.6958 46.5084 58.2803 47.7977 59.1226 47.792H59.1799C60.1197 47.6946 60.4004 46.5772 60.7958 45.8781C61.0938 45.3051 62.0737 44.6404 61.8273 44.2393C61.6095 43.9012 60.7901 43.9299 60.4234 43.7809C60.0051 43.6262 59.3862 43.4313 59.008 43.586L59.0137 43.5803Z" fill="#1E1B57"/>
<path d="M58.0682 49.6085C58.0969 49.895 58.3834 50.044 58.6584 50.1529C58.7444 50.1758 59.3804 50.6743 59.5122 50.6571L60.3202 50.4967C60.4233 50.3993 60.389 49.1902 60.3947 49.0469C60.3374 48.726 59.1168 49.0813 58.8303 48.8406C58.4579 48.6344 58.0166 49.4194 58.0682 49.6085Z" fill="#1E1B57"/>
<path d="M39.0267 42.1879C39.2158 43.0417 39.6971 43.7923 39.7945 44.6691C39.8977 45.4827 39.6456 46.3308 39.5653 47.1502C39.3877 48.3994 41.2787 49.2876 41.4219 50.5253C41.4448 50.829 42.2986 54.6797 40.6254 53.4305C40.5337 53.3389 40.3332 53.3045 40.3332 53.3045C40.8661 54.015 41.8402 54.5995 42.207 55.2699C42.5966 55.9919 42.4075 57.0406 42.7628 57.7339C43.141 58.3528 44.3329 58.1121 44.9976 58.009C46.9057 57.6136 48.8712 57.4818 50.8252 57.3213C51.5758 57.2411 52.3723 57.1552 53.0313 56.8114C53.9768 56.3357 54.3607 55.2757 55.2031 54.6797C56.0454 54.0551 58.8417 53.5795 59.2658 52.5252C59.6153 51.7516 57.4608 52.296 56.9393 51.6026C56.5038 50.9494 56.2918 49.1558 56.2058 48.3421C56.1715 46.9497 57.5983 45.3624 57.2545 43.8095C57.1857 42.5775 56.223 41.3742 56.1543 40.2052C56.1829 39.8442 56.5668 40.0448 57.1571 40.2797C57.8046 40.5548 58.4349 40.8699 59.0595 41.1851C59.7185 41.506 60.3545 41.867 60.8416 41.4429C62.0507 40.423 61.6037 37.0422 60.4233 36.2571H60.4061C60.3774 36.2571 60.3603 36.2628 60.3259 36.2915C60.1998 36.3373 60.0565 36.5322 59.9649 36.641C59.1512 37.9074 58.1713 36.4462 57.7244 35.6383C57.7014 35.5924 57.6613 35.5236 57.6097 35.4721C57.5639 35.3632 57.4837 35.2601 57.4035 35.1741C57.4035 35.1741 57.4035 35.1569 57.392 35.1569C57.3118 35.0595 57.2201 34.9564 57.1227 34.8991C56.3033 34.1541 55.1228 33.8905 54.1372 33.2946C53.4439 32.7731 52.7849 32.2116 52.0686 31.736C51.8452 31.5755 51.6217 31.4437 51.381 31.3062C50.957 31.0598 50.4928 30.8707 49.9943 30.7332C49.9542 30.7103 49.8912 30.6931 49.8511 30.6874C48.3784 30.2289 47.0604 30.7504 45.456 30.7905C44.9403 30.7905 44.3386 30.779 43.8573 30.9968C43.7942 31.0197 43.7312 31.0426 43.6682 31.0827C43.2327 31.3349 43.078 31.736 43.4218 32.034C44.1724 32.607 45.4617 31.8964 46.3614 31.8678C47.2954 31.7532 48.0919 32.1772 48.6133 32.8878C49.1978 33.7129 49.7193 34.8188 49.2207 35.558C49.0546 35.793 48.8139 35.9477 48.5331 36.005C48.2523 36.0623 47.9372 36.0394 47.6392 35.8847C46.9401 35.5294 46.5447 34.7558 45.9774 34.2229C45.4101 33.6728 44.6996 33.6671 43.9604 33.6384C43.3014 33.604 42.6081 33.5697 41.9663 33.7817C41.8861 33.8046 41.823 33.8562 41.7543 33.8905C40.6483 34.6699 39.6226 35.8331 39.3934 37.1338C39.2903 37.7584 39.2616 38.3716 39.1871 39.0019C39.0897 40.0792 38.7918 41.1908 39.0382 42.2051L39.0267 42.1879Z" fill="#1E1B57"/>
<path d="M64.635 57.1781C66.1478 58.0319 67.3225 59.304 68.7149 60.3182C69.4827 60.7881 70.0042 60.387 69.563 59.5733C68.8467 58.5763 68.5373 56.9374 67.5345 56.416C66.5718 55.9576 65.3742 56.0779 64.3657 56.2498C64.0562 56.3128 63.8557 56.3988 63.8328 56.5077V56.542C63.9015 56.8171 64.3829 57.0062 64.6407 57.1838L64.635 57.1781Z" fill="#1E1B57"/>
<path d="M50.0344 107.06C49.9312 107.06 49.8281 107.031 49.7364 106.979L34.4253 97.9714C34.1846 97.8281 34.0758 97.5416 34.1617 97.2723C34.4769 96.3211 34.9869 95.6106 35.4854 94.9229C35.8636 94.3958 36.2188 93.9029 36.4824 93.3185C36.9638 92.2526 38.1327 88.7572 37.2847 86.6657C35.8521 84.5856 34.9983 83.2276 34.5112 82.2649C34.2992 81.8466 34.0815 81.4169 33.8695 80.9928C33.0959 79.4514 32.2994 77.8641 31.4513 76.4029C30.1047 73.9275 27.211 73.5779 24.4146 73.2341C23.7442 73.1539 23.0566 73.0679 22.4091 72.9591C15.5615 71.899 10.7252 71.0337 6.57078 69.0969L2.76593 66.61C3.20716 66.8163 3.05817 66.4324 3.60827 66.6444C8.10648 68.3806 16.5872 70.8561 22.5982 71.7844C23.2228 71.8932 23.8703 71.9735 24.5522 72.0537C27.5032 72.409 30.8497 72.8158 32.4828 75.8184C33.3423 77.2968 34.1502 78.9013 34.9296 80.4599C35.1416 80.8839 35.3536 81.308 35.5713 81.732C36.1673 82.9124 37.342 84.6601 38.2989 86.0468C38.3218 86.0812 38.339 86.1156 38.3562 86.15C39.422 88.6426 38.1499 92.5277 37.5654 93.8113C37.2503 94.5046 36.8434 95.0719 36.4538 95.622C36.0813 96.1377 35.726 96.6363 35.4682 97.215L50.0401 105.793L67.4255 95.5189C67.9241 93.9717 69.2821 92.0235 70.7147 89.9606C72.1587 87.8805 73.6543 85.7317 74.0038 84.2934C74.1356 83.7146 74.296 83.1302 74.4565 82.5457C74.6513 81.8237 74.8576 81.073 75.0066 80.3338C75.041 80.1619 75.1498 80.0187 75.3046 79.9327C77.3732 78.7981 78.8172 77.5833 79.8429 76.1221C79.9174 76.019 80.0148 75.9445 80.1351 75.9044C81.2582 75.5205 82.1521 74.6437 82.6449 73.4404C83.2065 72.0709 83.1721 70.4492 82.5475 69.1943C82.5132 69.1313 82.496 69.0625 82.4902 68.988C82.3298 67.3836 81.5734 66.0083 80.6909 64.4153C80.3643 63.8251 80.0262 63.212 79.7053 62.553C79.4991 62.129 79.2985 61.7107 79.1037 61.3038C77.8259 58.6221 76.8173 56.5019 74.0726 55.1496C73.9752 55.1038 73.8949 55.0293 73.8376 54.9433C73.6543 54.6683 73.4652 54.4161 73.2875 54.2098C71.8321 52.5309 70.7376 51.4708 68.8294 51.9693L68.3424 52.0954C67.4886 52.3131 66.6061 52.5424 65.7007 52.6398C64.1192 52.8346 62.5434 53.6597 61.0306 55.0866C60.0393 55.9862 58.2114 56.032 57.2086 55.9805C56.5439 55.9174 56.2975 55.1954 55.9766 54.2843C55.925 54.1411 55.8734 53.9921 55.8219 53.8488C55.7588 53.6827 55.6958 53.5222 55.627 53.3732C55.5526 53.2128 55.5526 53.0294 55.627 52.869C55.7015 52.7085 55.8448 52.5882 56.0167 52.5481C56.3204 52.4736 56.5897 52.3991 56.8247 52.3361C57.1799 52.2444 57.4779 52.1642 57.7759 52.0954C58.601 51.9178 59.1053 51.6885 59.3689 51.3906C59.7528 51.0067 59.896 50.4336 59.8788 49.4423L59.8617 49.1787C59.8044 48.239 59.7413 47.1732 60.2399 46.3652C60.3888 46.1073 60.5149 45.8208 60.6467 45.5171C60.9275 44.8811 61.2426 44.1648 61.9245 43.4714C61.9073 43.3568 61.8558 43.1448 61.7641 42.9615C61.6609 42.7781 61.5521 42.5718 61.4375 42.3483C60.8644 41.3856 61.0879 40.1365 61.9646 39.5291C62.2282 39.3285 62.4173 38.9904 62.5434 38.469C62.9445 36.8359 61.5234 33.3519 60.131 32.5497C58.4005 31.5412 56.5152 30.5155 54.0054 29.2262C52.4239 28.4297 50.9856 28.189 49.49 28.4698C48.407 28.6932 46.9744 28.9282 45.5935 28.7104C44.4646 28.5213 43.3358 28.8823 42.4877 29.7075C42.4533 29.7419 42.4189 29.7705 42.3788 29.7934C42.121 29.9482 41.9319 30.0914 41.7714 30.269C41.2385 30.779 40.8259 31.3578 40.3904 31.9652C40.1727 32.2689 39.9492 32.5726 39.72 32.8706C39.4278 33.2545 39.1069 33.6384 38.786 34.0166C38.0525 34.8819 37.3649 35.7013 36.958 36.6296C36.3678 37.873 36.4137 39.2425 36.4652 40.6866C36.4824 41.1908 36.4996 41.7123 36.4939 42.2223C36.2819 45.2994 36.2704 45.4827 38.3505 47.4138C38.8318 47.7977 39.1699 48.8578 39.6742 50.5597C39.8805 51.2588 40.0982 51.9808 40.2873 52.422C40.528 52.6627 41.6282 53.3732 42.1668 53.7228C43.0263 54.2786 43.1065 54.3302 43.204 54.4906C43.2555 54.5766 43.2842 54.6683 43.2842 54.7657C43.3243 55.6481 43.0435 56.4274 42.482 57.0348C41.8402 57.7167 40.866 58.1064 39.7372 58.1236C38.7115 58.1637 37.6571 58.0892 36.6429 58.0147C36.1329 57.9803 35.6172 57.9402 35.1015 57.9173C35.0212 57.9173 34.9467 57.8944 34.8723 57.86C32.987 56.9718 31.692 56.4389 29.5489 56.5936C28.5117 56.6624 27.5548 57.2297 26.6322 57.7855C25.5148 58.4502 24.3573 59.1435 23.154 58.7711L22.9191 58.7023C22.5065 58.5762 16.2778 58.8513 15.8766 58.7482C13.1548 58.0319 16.9482 56.542 13.9398 56.9202C13.4528 56.9833 12.6563 56.8973 13.086 55.4017L13.1605 54.5422C13.0574 54.7485 12.0718 58.2267 11.9916 58.4215C14.8681 58.3929 11.8426 55.545 21.9965 57.201C22.4205 57.2698 22.8446 57.4417 23.2686 57.5677L23.5093 57.6422C24.2141 57.8543 25.0564 57.3557 26.0305 56.7712C27.0276 56.1753 28.1622 55.4991 29.4744 55.4189C31.8467 55.247 33.3308 55.8315 35.2791 56.7483C35.7662 56.7712 36.2532 56.8056 36.7346 56.84C37.7603 56.9145 38.7344 56.9833 39.7085 56.9489C40.528 56.9317 41.1984 56.6796 41.6224 56.2326C41.9089 55.9289 42.0751 55.5393 42.1038 55.098C41.9491 54.9949 41.7256 54.8516 41.5307 54.7255C39.7716 53.591 39.3647 53.2758 39.2272 52.9492C39.0037 52.4564 38.7803 51.7 38.5453 50.9035C38.2875 50.0268 37.8462 48.5599 37.5826 48.3192C35.1301 46.0386 35.0957 45.4369 35.3192 42.1821C35.3307 41.7295 35.3077 41.2481 35.2906 40.7381C35.2333 39.2139 35.176 37.6324 35.8865 36.1425C36.3564 35.071 37.1357 34.1484 37.8863 33.2545C38.1958 32.8878 38.5052 32.521 38.7917 32.1486C39.0209 31.862 39.2272 31.5698 39.4392 31.2776C39.8862 30.653 40.3503 30.0055 40.9348 29.4439C41.1354 29.2204 41.3932 29.0141 41.7256 28.8136C42.843 27.7592 44.3271 27.3008 45.7997 27.5472C46.9916 27.7363 48.3554 27.5014 49.2723 27.3123C51.0257 26.9799 52.7505 27.2664 54.5555 28.1718C57.0882 29.4726 58.9907 30.5097 60.7384 31.524C62.6007 32.6012 64.2453 36.5895 63.7124 38.7498C63.5233 39.5405 63.1852 40.1078 62.6752 40.4917C62.2512 40.784 62.2569 41.3799 62.4918 41.781C62.6179 42.0274 62.721 42.2165 62.8299 42.4113C62.9445 42.6406 63.4373 43.7121 62.8471 44.245C62.2798 44.7951 62.022 45.3796 61.7526 45.9985C61.6151 46.3136 61.4661 46.6402 61.277 46.9726C60.9676 47.4769 61.0192 48.3478 61.065 49.11L61.0822 49.4022C61.0994 50.3706 61.0134 51.4421 60.257 52.2043C59.8445 52.6856 59.1511 53.0237 58.0509 53.2644C57.7701 53.3274 57.4836 53.4019 57.1455 53.4936C57.094 53.505 57.0367 53.5222 56.9794 53.5394C57.0252 53.6712 57.0711 53.7915 57.1112 53.9119C57.2143 54.2041 57.3576 54.6281 57.4664 54.823C58.7443 54.8688 59.7814 54.6511 60.2399 54.2385C61.936 52.6398 63.7353 51.7115 65.5804 51.4823C66.4113 51.3963 67.2135 51.19 68.0616 50.9665L68.5486 50.8405C71.3106 50.1127 72.9093 51.9636 74.1986 53.4477C74.382 53.654 74.5711 53.9004 74.7602 54.1755C77.7685 55.7111 78.8917 58.0777 80.1924 60.811C80.3815 61.2122 80.5821 61.6247 80.7884 62.043C81.0978 62.6734 81.4301 63.275 81.751 63.8538C82.6335 65.4582 83.4701 66.971 83.6821 68.7703C84.4156 70.3232 84.45 72.2313 83.7623 73.8931C83.1607 75.3543 82.0891 76.4373 80.7253 76.9587C79.6538 78.4257 78.1467 79.7035 76.1354 80.8381C75.9865 81.52 75.8031 82.1962 75.6255 82.8494C75.4707 83.4224 75.316 83.9897 75.1842 84.5627C74.7831 86.2245 73.2933 88.3676 71.7174 90.6367C70.3365 92.6251 68.9039 94.6823 68.5257 96.0632C68.4856 96.2122 68.3882 96.3383 68.2564 96.4185L50.3667 106.991C50.275 107.048 50.1719 107.071 50.063 107.071L50.0344 107.06ZM40.2988 52.4449C40.2988 52.4449 40.2988 52.4564 40.3045 52.4564C40.3045 52.4564 40.3045 52.4449 40.2988 52.4449ZM62.022 43.3683C62.022 43.3683 62.0105 43.3798 62.0048 43.3855C62.0105 43.3855 62.0162 43.374 62.022 43.3683Z" fill="#FEF8FB"/>
</svg>
